<svg id="visual" viewBox="0 0 900 600" width="900" height="600" xmlns="http://www.w3.org/2000/svg" xmlns:xlink="http://www.w3.org/1999/xlink" version="1.1"><rect x="0" y="0" width="900" height="600" fill="#245ac7"></rect><defs><linearGradient id="grad1_0" x1="33.3%" y1="0%" x2="100%" y2="100%"><stop offset="20%" stop-color="#5cd741" stop-opacity="1"></stop><stop offset="80%" stop-color="#5cd741" stop-opacity="1"></stop></linearGradient></defs><defs><linearGradient id="grad1_1" x1="33.3%" y1="0%" x2="100%" y2="100%"><stop offset="20%" stop-color="#5cd741" stop-opacity="1"></stop><stop offset="80%" stop-color="#00aad5" stop-opacity="1"></stop></linearGradient></defs><defs><linearGradient id="grad1_2" x1="33.3%" y1="0%" x2="100%" y2="100%"><stop offset="20%" stop-color="#245ac7" stop-opacity="1"></stop><stop offset="80%" stop-color="#00aad5" stop-opacity="1"></stop></linearGradient></defs><defs><linearGradient id="grad2_0" x1="0%" y1="0%" x2="66.7%" y2="100%"><stop offset="20%" stop-color="#5cd741" stop-opacity="1"></stop><stop offset="80%" stop-color="#5cd741" stop-opacity="1"></stop></linearGradient></defs><defs><linearGradient id="grad2_1" x1="0%" y1="0%" x2="66.7%" y2="100%"><stop offset="20%" stop-color="#00aad5" stop-opacity="1"></stop><stop offset="80%" stop-color="#5cd741" stop-opacity="1"></stop></linearGradient></defs><defs><linearGradient id="grad2_2" x1="0%" y1="0%" x2="66.7%" y2="100%"><stop offset="20%" stop-color="#00aad5" stop-opacity="1"></stop><stop offset="80%" stop-color="#245ac7" stop-opacity="1"></stop></linearGradient></defs><g transform="translate(900, 0)"><path d="M0 405.6C-35.3 377 -70.6 348.3 -107.5 331C-144.5 313.6 -183.1 307.5 -207.5 285.6C-231.9 263.7 -242.2 226 -274.3 199.3C-306.3 172.5 -360.2 156.7 -385.8 125.3C-411.3 94 -408.5 47 -405.6 0L0 0Z" fill="#0088ea"></path><path d="M0 270.4C-23.5 251.3 -47.1 232.2 -71.7 220.6C-96.3 209.1 -122 205 -138.3 190.4C-154.6 175.8 -161.4 150.7 -182.8 132.8C-204.2 115 -240.2 104.5 -257.2 83.6C-274.2 62.6 -272.3 31.3 -270.4 0L0 0Z" fill="#00c594"></path><path d="M0 135.2C-11.8 125.7 -23.5 116.1 -35.8 110.3C-48.2 104.5 -61 102.5 -69.2 95.2C-77.3 87.9 -80.7 75.3 -91.4 66.4C-102.1 57.5 -120.1 52.2 -128.6 41.8C-137.1 31.3 -136.2 15.7 -135.2 0L0 0Z" fill="#5cd741"></path></g><g transform="translate(0, 600)"><path d="M0 -405.6C39.9 -384.1 79.8 -362.6 109.7 -337.6C139.6 -312.6 159.7 -284.1 195.7 -269.4C231.8 -254.7 284 -254 319.6 -232.2C355.2 -210.4 374.2 -167.5 385.8 -125.3C397.4 -83.1 401.5 -41.6 405.6 0L0 0Z" fill="#0088ea"></path><path d="M0 -270.4C26.6 -256.1 53.2 -241.8 73.1 -225.1C93.1 -208.4 106.4 -189.4 130.5 -179.6C154.5 -169.8 189.3 -169.3 213 -154.8C236.8 -140.3 249.5 -111.7 257.2 -83.6C264.9 -55.4 267.7 -27.7 270.4 0L0 0Z" fill="#00c594"></path><path d="M0 -135.2C13.3 -128 26.6 -120.9 36.6 -112.5C46.5 -104.2 53.2 -94.7 65.2 -89.8C77.3 -84.9 94.7 -84.7 106.5 -77.4C118.4 -70.1 124.7 -55.8 128.6 -41.8C132.5 -27.7 133.8 -13.9 135.2 0L0 0Z" fill="#5cd741"></path></g></svg>